<svg width="20" height="16" viewBox="0 0 20 16" fill="none" xmlns="http://www.w3.org/2000/svg">
<g clip-path="url(#clip0_8265_1036)">
<path d="M0 2C0 0.895431 0.895431 0 2 0H18C19.1046 0 20 0.895431 20 2V14C20 15.1046 19.1046 16 18 16H2C0.895431 16 0 15.1046 0 14V2Z" fill="white"/>
<path d="M17.1604 13.5392L16.1843 12.4505L15.1706 13.5392H13.1809H8.90101V8.47098H6.91125L9.38906 2.80205H11.7918L12.6553 4.75426V2.80205H15.6587L16.1843 4.26621L16.7099 2.80205H19V1.93857C19 1.41297 18.587 1 18.0614 1H-2.06143C-2.58703 1 -3 1.41297 -3 1.93857V14.1399C-3 14.6655 -2.58703 15.0785 -2.06143 15.0785H18.0614C18.587 15.0785 19 14.6655 19 14.1399V13.5392H17.1604Z" fill="#0071CE"/>
<path d="M17.4232 12.9386H19L16.9352 10.7236L19 8.54614H17.4607L16.1468 9.97276L14.8703 8.54614H13.2935L15.3959 10.7612L13.2935 12.9386H14.8328L16.1468 11.512L17.4232 12.9386Z" fill="#0071CE"/>
<path d="M10.7781 11.925V11.2492H13.2559V10.2356H10.7781V9.55979H13.2934V8.54614H9.57671V12.9386H13.2934V11.925H10.7781Z" fill="#0071CE"/>
<path d="M17.8362 7.90781H18.9625V3.47778L17.1604 3.51533L16.1843 6.25594L15.1706 3.51533H13.2935V7.90781H14.4949V4.82932L15.6212 7.90781H16.6724L17.8362 4.82932V7.90781Z" fill="#0071CE"/>
<path d="M11.3787 3.51538H9.83948L7.88727 7.90787H9.20126L9.57669 7.04439H11.604L11.9794 7.90787H13.3309L11.3787 3.51538ZM9.98965 6.03074L10.5903 4.60412L11.191 6.03074H9.98965Z" fill="#0071CE"/>
<path d="M17.9113 10.611L19 11.8124V9.40967L17.9113 10.611Z" fill="#0071CE"/>
</g>
<path d="M2 1H18V-1H2V1ZM19 2V14H21V2H19ZM18 15H2V17H18V15ZM1 14V2H-1V14H1ZM2 15C1.44772 15 1 14.5523 1 14H-1C-1 15.6569 0.343147 17 2 17V15ZM19 14C19 14.5523 18.5523 15 18 15V17C19.6569 17 21 15.6569 21 14H19ZM18 1C18.5523 1 19 1.44772 19 2H21C21 0.343145 19.6569 -1 18 -1V1ZM2 -1C0.343146 -1 -1 0.343146 -1 2H1C1 1.44772 1.44772 1 2 1V-1Z" fill="white"/>
<defs>
<clipPath id="clip0_8265_1036">
<path d="M0 2C0 0.895431 0.895431 0 2 0H18C19.1046 0 20 0.895431 20 2V14C20 15.1046 19.1046 16 18 16H2C0.895431 16 0 15.1046 0 14V2Z" fill="white"/>
</clipPath>
</defs>
</svg>
