<svg width="92" height="40" viewBox="0 0 92 40" fill="none" xmlns="http://www.w3.org/2000/svg">
<g clip-path="url(#clip0_5788_3264)">
<g filter="url(#filter0_d_5788_3264)">
<path fill-rule="evenodd" clip-rule="evenodd" d="M21.8266 10.9892C22.839 9.77164 23.3218 8.21904 23.1817 6.66663C21.6241 6.81873 20.1757 7.54935 19.1477 8.70618C18.1198 9.83256 17.5902 11.3089 17.6991 12.8157C19.2722 12.8767 20.8143 12.1916 21.8266 10.9892V10.9892ZM23.1505 13.0592C20.9076 12.9223 18.9919 14.3074 17.964 14.3074C16.936 14.3074 15.2539 13.1201 13.4627 13.1506C11.0953 13.2115 8.94595 14.5053 7.82451 16.5295C5.39481 20.6087 7.18605 26.697 9.55342 29.9542C10.6904 31.6437 12.0609 33.3333 13.8834 33.3333C15.7056 33.3333 16.2662 32.2525 18.3535 32.2525C20.4405 32.2525 21.0323 33.3333 22.8545 33.3028C24.6769 33.2724 25.9074 31.6133 27.0443 30.0151C27.8543 28.8584 28.4772 27.5798 28.9134 26.2404C26.7017 25.2814 25.2842 23.1353 25.2999 20.7761C25.3311 18.7061 26.4525 16.7883 28.2593 15.7077C27.1067 14.1095 25.2533 13.1201 23.2595 13.0592" fill="white"/>
<path fill-rule="evenodd" clip-rule="evenodd" d="M40.8577 10.8983V15.1144H44.3154V18.0215H40.8577V27.9149C40.8577 29.4522 41.543 30.1677 43.0849 30.1677C43.5054 30.1677 43.9104 30.1372 44.3309 30.0763V32.9683C43.6456 33.0899 42.9448 33.1508 42.2438 33.1357C38.5213 33.1357 37.0573 31.7658 37.0573 28.2955V18.0671H34.4407V15.1144H37.1041V10.8983H40.8577ZM56.978 33.0899H52.9596L46.3246 15.1144H50.3429L54.9531 29.4522L59.6257 15.1144H63.5662L56.978 33.0899ZM84.1254 22.3138H76.8051V15.1448H73.3163V22.3138H66.0272V25.6775H73.3163V32.8922H76.8051V25.6775H84.1254V22.3138Z" fill="white"/>
</g>
</g>
<defs>
<filter id="filter0_d_5788_3264" x="2.66669" y="6.66663" width="85.4587" height="34.6666" filterUnits="userSpaceOnUse" color-interpolation-filters="sRGB">
<feFlood flood-opacity="0" result="BackgroundImageFix"/>
<feColorMatrix in="SourceAlpha" type="matrix" values="0 0 0 0 0 0 0 0 0 0 0 0 0 0 0 0 0 0 127 0" result="hardAlpha"/>
<feOffset dy="4"/>
<feGaussianBlur stdDeviation="2"/>
<feComposite in2="hardAlpha" operator="out"/>
<feColorMatrix type="matrix" values="0 0 0 0 0 0 0 0 0 0 0 0 0 0 0 0 0 0 0.25 0"/>
<feBlend mode="normal" in2="BackgroundImageFix" result="effect1_dropShadow_5788_3264"/>
<feBlend mode="normal" in="SourceGraphic" in2="effect1_dropShadow_5788_3264" result="shape"/>
</filter>
<clipPath id="clip0_5788_3264">
<rect width="91.6667" height="40" fill="white"/>
</clipPath>
</defs>
</svg>
