<svg width="40" height="40" viewBox="0 0 40 40" fill="none" xmlns="http://www.w3.org/2000/svg">
<path d="M20 33.3333C27.3645 33.3333 33.3333 27.3645 33.3333 20C33.3333 12.6354 27.3645 6.66663 20 6.66663C12.6354 6.66663 6.66663 12.6354 6.66663 20C6.66663 27.3645 12.6354 33.3333 20 33.3333ZM13.3958 20.5156C13.526 20.2031 13.8281 20 14.1666 20H17.5V15C17.5 14.0796 18.2463 13.3333 19.1666 13.3333H20.8333C21.7536 13.3333 22.5 14.0796 22.5 15V20H25.8333C26.1702 20 26.4744 20.2026 26.6031 20.5143C26.7325 20.8259 26.6608 21.1841 26.4224 21.4226L20.5891 27.2559C20.2637 27.5814 19.7359 27.5814 19.4109 27.2559L13.5776 21.4226C13.3385 21.1823 13.2656 20.8281 13.3958 20.5156Z" fill="white"/>
</svg>
