<svg width="20" height="16" viewBox="0 0 20 16" fill="none" xmlns="http://www.w3.org/2000/svg">
<path d="M0 2C0 0.895431 0.895431 0 2 0H18C19.1046 0 20 0.895431 20 2V14C20 15.1046 19.1046 16 18 16H2C0.895431 16 0 15.1046 0 14V2Z" fill="black"/>
<path d="M4.49435 6.32301C4.6741 6.26297 4.86628 6.23065 5.0663 6.23065C5.93878 6.23065 6.66717 6.85033 6.83402 7.67407L8.07077 7.42183C7.78696 6.02202 6.54985 4.96854 5.0663 4.96854C4.72637 4.96854 4.39982 5.02392 4.09424 5.12599L4.49435 6.32301Z" fill="#FFCB04"/>
<path d="M3.03479 10.3311L3.87112 9.38548C3.49777 9.05472 3.26227 8.57203 3.26227 8.03427C3.26227 7.49691 3.49749 7.01446 3.87061 6.68407L3.03408 5.73844C2.4001 6.30014 2 7.12063 2 8.03427C2 8.94854 2.40026 9.76928 3.03479 10.3311Z" fill="#00A4E0"/>
<path d="M6.83362 8.39631C6.66611 9.21957 5.93843 9.83806 5.06627 9.83806C4.86608 9.83806 4.67341 9.80584 4.49375 9.7454L4.09314 10.9429C4.39871 11.0449 4.72594 11.1001 5.06627 11.1001C6.5484 11.1001 7.78526 10.0484 8.07022 8.64983L6.83362 8.39631Z" fill="#EF4123"/>
<path d="M11.6236 9.0525C11.6232 9.05283 11.623 9.05314 11.6226 9.05346L11.5874 9.02976C11.4861 9.19416 11.3281 9.32727 11.1286 9.41378C10.7492 9.57881 10.3976 9.53639 10.145 9.31487L10.1218 9.35018C10.1215 9.34979 10.1214 9.34948 10.1211 9.34948L9.69045 9.99372C9.79735 10.0681 9.91213 10.1309 10.0327 10.1813C10.5084 10.3788 10.9952 10.3698 11.4746 10.1612C11.8215 10.0109 12.0936 9.78168 12.2796 9.4912L11.6236 9.0525ZM10.2792 7.46294C9.87848 7.63517 9.6719 8.01105 9.7144 8.4518L11.4119 7.72119C11.12 7.37818 10.7401 7.26449 10.2792 7.46294ZM9.15215 9.42555C9.11163 9.35991 9.05659 9.2549 9.02338 9.17766C8.82754 8.723 8.81814 8.25248 8.98357 7.80075C9.16542 7.30542 9.51279 6.92614 9.96159 6.73306C10.5259 6.49021 11.15 6.53809 11.6908 6.85898C12.0344 7.05609 12.2779 7.3604 12.4629 7.79071C12.4864 7.84577 12.5071 7.90464 12.5274 7.95464L9.15215 9.42555Z" fill="white"/>
<path d="M13.7072 5.78415V9.36604L14.2641 9.59175L13.9477 10.3301L13.333 10.0741C13.195 10.0144 13.1011 9.92299 13.03 9.81974C12.9621 9.7145 12.9112 9.57017 12.9112 9.37582V5.78415H13.7072Z" fill="white"/>
<path d="M15.1498 8.45359C15.1502 8.14857 15.2848 7.87507 15.4979 7.68918L14.9266 7.05213C14.5391 7.39467 14.2951 7.89514 14.2946 8.45274C14.294 9.01055 14.5377 9.51158 14.9248 9.85498L15.4955 9.21729C15.2834 9.03061 15.1496 8.75791 15.1498 8.45359Z" fill="white"/>
<path d="M16.165 9.47019C16.0525 9.46986 15.9442 9.4513 15.8431 9.41765L15.5703 10.2289C15.7567 10.2915 15.9564 10.3256 16.1641 10.3259C17.0687 10.3268 17.8241 9.6849 17.9991 8.83162L17.1605 8.66035C17.0651 9.12299 16.6556 9.47058 16.165 9.47019Z" fill="white"/>
<path d="M16.1675 6.583C15.9601 6.58276 15.7604 6.61649 15.5742 6.67851L15.8446 7.49047C15.9459 7.45698 16.0542 7.4385 16.1666 7.4385C16.6584 7.43897 17.0681 7.78862 17.1613 8.25244L18 8.08235C17.8275 7.22788 17.0728 6.58363 16.1675 6.583Z" fill="white"/>
</svg>
