<svg width="40" height="40" viewBox="0 0 40 40" fill="none" xmlns="http://www.w3.org/2000/svg">
<path d="M16.6614 23.3333C19.6515 23.3333 22.0312 20.9083 22.0312 17.9166C22.0312 14.925 19.6072 12.5 16.6614 12.5C13.6713 12.5 11.2916 14.925 11.2916 17.9166C11.2448 20.9062 13.6718 23.3333 16.6614 23.3333ZM19.2656 25H14.0677C9.97913 25 6.66663 28.1093 6.66663 31.9427C6.66663 32.7135 7.32808 33.3333 8.14579 33.3333H25.1875C26.0052 33.3333 26.6666 32.7135 26.6666 31.9427C26.6666 28.1093 23.3541 25 19.2656 25ZM26.6666 15C28.9677 15 30.8333 13.1343 30.8333 10.8333C30.8333 8.53225 28.9687 6.66663 26.6666 6.66663C24.3656 6.66663 22.5 8.53225 22.5 10.8333C22.5 13.1343 24.3645 15 26.6666 15ZM28.7448 16.6666H25.5239C24.8572 16.6666 24.2281 16.8248 23.6562 17.0958C23.6875 17.3698 23.7395 17.6354 23.7395 17.9166C23.7395 19.6724 23.0739 21.2609 22.0125 22.5H32.4135C32.9218 22.5 33.3333 22.0625 33.3333 21.526C33.3333 18.8437 31.2812 16.6666 28.7448 16.6666Z" fill="white"/>
</svg>
