<svg width="14" height="14" viewBox="0 0 14 14" fill="none" xmlns="http://www.w3.org/2000/svg">
<path d="M6.99364 14C6.34932 14 5.73045 13.9157 5.13705 13.747C4.54364 13.5784 3.98841 13.343 3.46977 13.0391C2.95114 12.7352 2.47864 12.3709 2.05386 11.9461C1.62909 11.5214 1.26477 11.0489 0.960909 10.5302C0.657045 10.0116 0.421591 9.45318 0.252955 8.855C0.0843182 8.25841 0 7.63795 0 6.99364C0 6.03114 0.184545 5.12591 0.553636 4.27477C0.922727 3.42523 1.42227 2.68386 2.05386 2.05386C2.68386 1.42386 3.42523 0.924318 4.27477 0.553636C5.12432 0.184545 6.03114 0 6.99364 0C7.95455 0 8.86136 0.184545 9.71091 0.553636C10.5605 0.922727 11.3034 1.42227 11.9398 2.05386C12.5745 2.68386 13.0773 3.42523 13.4464 4.27477C13.8155 5.12432 14 6.03114 14 6.99364C14 7.96568 13.8155 8.87568 13.4464 9.72682C13.0773 10.5764 12.5745 11.3177 11.9398 11.9477C11.305 12.5777 10.562 13.0789 9.71091 13.448C8.86136 13.8155 7.95455 14 6.99364 14ZM6.99364 10.5111C7.79705 10.5111 8.60364 10.4968 9.41182 10.4698C10.22 10.4411 11.0075 10.3855 11.7727 10.3011C11.997 10.282 12.1673 10.2327 12.2834 10.1548C12.3995 10.0752 12.4727 9.91932 12.5014 9.68546C12.538 9.23682 12.5602 8.79136 12.565 8.3475C12.5698 7.90364 12.5714 7.45341 12.5714 6.99523C12.5714 6.54659 12.5682 6.10114 12.565 5.65727C12.5602 5.21341 12.5395 4.76795 12.5014 4.31932C12.4727 4.08545 12.4011 3.92955 12.2834 3.85C12.1673 3.77045 11.9955 3.72114 11.7727 3.70364C11.0059 3.61932 10.22 3.56364 9.41182 3.535C8.60364 3.50636 7.79705 3.49364 6.99364 3.49364C6.19023 3.49364 5.38364 3.50795 4.57705 3.535C3.76886 3.56364 2.97659 3.61932 2.20182 3.70364C1.98705 3.72273 1.82159 3.77205 1.70386 3.85C1.58773 3.92955 1.51455 4.08545 1.48591 4.31932C1.43977 4.76795 1.41273 5.21341 1.40955 5.65727C1.40477 6.10114 1.40318 6.54659 1.40318 6.99523C1.40318 7.45341 1.40477 7.90364 1.40955 8.3475C1.41432 8.79136 1.43977 9.23682 1.48591 9.68546C1.51455 9.91932 1.58614 10.0752 1.70386 10.1548C1.82 10.2343 1.98705 10.2836 2.20182 10.3011C2.97659 10.3855 3.76886 10.4411 4.57705 10.4698C5.38364 10.4968 6.18864 10.5111 6.99364 10.5111ZM6.99364 9.83818C6.59114 9.83818 6.21886 9.76341 5.87205 9.61386C5.52682 9.46432 5.22773 9.25909 4.97477 8.99659C4.72182 8.73568 4.52455 8.43341 4.37977 8.09295C4.235 7.7525 4.16182 7.385 4.16182 6.99205C4.16182 6.60864 4.23341 6.24432 4.37977 5.89909C4.52455 5.55386 4.72341 5.25159 4.97477 4.99545C5.22773 4.73932 5.52523 4.53568 5.87205 4.38614C6.21727 4.23659 6.59114 4.16182 6.99364 4.16182C7.39455 4.16182 7.76841 4.23659 8.11523 4.38614C8.46045 4.53568 8.75955 4.73932 9.0125 4.99545C9.26545 5.25318 9.46273 5.55386 9.6075 5.89909C9.75227 6.24432 9.82545 6.60864 9.82545 6.99205C9.82545 7.385 9.75227 7.75091 9.6075 8.09295C9.46273 8.43341 9.26386 8.73568 9.0125 8.99659C8.75955 9.2575 8.46045 9.46432 8.11523 9.61386C7.76841 9.76341 7.39455 9.83818 6.99364 9.83818Z" fill="#C4C4C4"/>
</svg>
