<svg width="20" height="16" viewBox="0 0 20 16" fill="none" xmlns="http://www.w3.org/2000/svg">
<path d="M0 2C0 0.895431 0.895431 0 2 0H18C19.1046 0 20 0.895431 20 2V14C20 15.1046 19.1046 16 18 16H2C0.895431 16 0 15.1046 0 14V2Z" fill="white"/>
<path d="M11.9694 4.46191H8.03189V11.5377H11.9694V4.46191Z" fill="#FF5F00"/>
<path d="M8.28213 7.99999C8.28151 7.31854 8.43592 6.64588 8.7337 6.03294C9.03147 5.41999 9.46479 4.88282 10.0009 4.4621C9.33702 3.94031 8.53976 3.61581 7.70022 3.5257C6.86068 3.43559 6.01272 3.5835 5.25326 3.95253C4.49381 4.32157 3.8535 4.89683 3.40553 5.61256C2.95756 6.3283 2.72 7.15563 2.72 7.99999C2.72 8.84436 2.95756 9.67169 3.40553 10.3874C3.8535 11.1032 4.49381 11.6784 5.25326 12.0475C6.01272 12.4165 6.86068 12.5644 7.70022 12.4743C8.53976 12.3842 9.33702 12.0597 10.0009 11.5379C9.4648 11.1172 9.03148 10.58 8.73371 9.96704C8.43593 9.3541 8.28151 8.68144 8.28213 7.99999Z" fill="#EB001B"/>
<path d="M17.2813 7.99999C17.2813 8.84434 17.0438 9.67167 16.5958 10.3874C16.1479 11.1031 15.5076 11.6784 14.7482 12.0474C13.9887 12.4165 13.1408 12.5644 12.3012 12.4743C11.4617 12.3842 10.6645 12.0597 10.0006 11.5379C10.5362 11.1167 10.9692 10.5795 11.2669 9.96663C11.5647 9.35378 11.7194 8.68133 11.7194 7.99999C11.7194 7.31865 11.5647 6.6462 11.2669 6.03335C10.9692 5.4205 10.5362 4.88325 10.0006 4.4621C10.6645 3.9403 11.4617 3.61581 12.3012 3.5257C13.1408 3.43559 13.9887 3.58351 14.7482 3.95254C15.5076 4.32158 16.1479 4.89684 16.5958 5.61258C17.0438 6.32831 17.2813 7.15564 17.2813 7.99999Z" fill="#F79E1B"/>
<path d="M16.852 10.7882V10.6433H16.9104V10.6138H16.7616V10.6433H16.8201V10.7882H16.852ZM17.1408 10.7882V10.6135H17.0952L17.0427 10.7337L16.9903 10.6135H16.9447V10.7882H16.9769V10.6564L17.026 10.77H17.0594L17.1086 10.6562V10.7882H17.1408Z" fill="#F79E1B"/>
</svg>
