<svg width="42" height="12" viewBox="0 0 42 12" fill="none" xmlns="http://www.w3.org/2000/svg">
<path fill-rule="evenodd" clip-rule="evenodd" d="M7.8191 0.514404C11.9793 0.514404 15.3525 2.72729 15.3525 5.44167V5.73061C15.3525 8.61083 12.4318 10.9423 7.81796 10.9423C3.23319 10.9423 0.285721 8.60969 0.285721 5.73061C0.285721 5.7215 0.285799 5.68895 0.285898 5.64804C0.286065 5.57884 0.28629 5.48572 0.28629 5.44167C0.28629 2.72729 3.65833 0.514404 7.8191 0.514404ZM15.0636 5.43936C15.0636 7.99817 11.8215 10.0731 7.82033 10.0731C3.82028 10.0731 0.577601 7.99817 0.577601 5.43936C0.577601 2.87999 3.82028 0.805016 7.82033 0.805016C11.8215 0.805016 15.0636 2.87999 15.0636 5.43936Z" fill="white"/>
<path d="M7.26354 8.57411C6.94497 8.57411 6.68624 8.32621 6.67484 8.01163C6.6737 7.98427 6.67086 7.91247 6.61045 7.91247C6.58537 7.91247 6.56315 7.92728 6.53864 7.94951C6.46797 8.01505 6.37907 8.08058 6.24914 8.08058C6.18987 8.08058 6.12604 8.06691 6.05822 8.03955C5.72199 7.90335 5.71743 7.67197 5.73111 7.57908C5.73453 7.55457 5.73567 7.52893 5.71914 7.50898L5.69805 7.49075H5.67754C5.66044 7.49075 5.6422 7.49702 5.61884 7.51411C5.52139 7.5825 5.42793 7.61498 5.33332 7.61498C5.28089 7.61498 5.22789 7.60529 5.17375 7.58421C4.73152 7.4121 4.76628 6.99437 4.78794 6.86843C4.79079 6.84278 4.78452 6.82341 4.76856 6.80973L4.73722 6.78351L4.70815 6.81201C4.62153 6.89578 4.50869 6.9408 4.39016 6.9408C4.13712 6.9408 3.93025 6.7345 3.93025 6.4809C3.93025 6.2273 4.13769 6.02157 4.39073 6.02157C4.61982 6.02157 4.81529 6.19368 4.84436 6.42334L4.86031 6.54644L4.92756 6.44215C4.93554 6.42961 5.12132 6.14866 5.46326 6.14866C5.52766 6.14866 5.5949 6.16005 5.66215 6.18057C5.93513 6.2632 5.98072 6.50997 5.98813 6.61369C5.99326 6.67352 6.03543 6.67637 6.04398 6.67637C6.06677 6.67637 6.08501 6.66156 6.09698 6.64845C6.14827 6.59431 6.25996 6.50541 6.43549 6.50541C6.51585 6.50598 6.60076 6.52421 6.68852 6.5624C7.12164 6.74818 6.92503 7.29869 6.92275 7.30382C6.8857 7.39501 6.88456 7.43547 6.91933 7.45826L6.93642 7.46681H6.94896C6.96834 7.46681 6.99227 7.45826 7.03274 7.44459C7.09143 7.42407 7.18034 7.39387 7.26354 7.39387H7.26411C7.58952 7.39785 7.85452 7.66228 7.85452 7.98484C7.85395 8.30968 7.58895 8.57411 7.26354 8.57411ZM11.8483 5.92469C11.1342 5.30066 9.48269 3.86454 9.03476 3.52887C8.77945 3.33682 8.60506 3.23481 8.45233 3.18979C8.38338 3.16927 8.2882 3.14534 8.16568 3.14534C8.05227 3.14534 7.93031 3.16585 7.80209 3.20632C7.51258 3.2975 7.22536 3.52659 6.94611 3.74771L6.93243 3.75911C6.67256 3.96541 6.40472 4.17912 6.20184 4.22414C6.11293 4.24408 6.02175 4.25434 5.93114 4.25434C5.70375 4.25434 5.49973 4.1888 5.42337 4.09078C5.41026 4.07483 5.41881 4.04918 5.44787 4.011L5.45186 4.00587L6.08045 3.32827C6.57283 2.83646 7.03786 2.37086 8.10869 2.34635C8.12635 2.34578 8.14459 2.34521 8.16226 2.34521C8.82846 2.34635 9.49466 2.6444 9.56932 2.6786C10.1945 2.98406 10.839 3.13907 11.4876 3.13964C12.1635 3.13964 12.8604 2.97209 13.5933 2.63472C13.5112 2.56576 13.4258 2.49908 13.3386 2.43297C12.6946 2.71222 12.0814 2.85355 11.4893 2.85355C10.8846 2.85241 10.2805 2.70709 9.69469 2.42101C9.66335 2.40676 8.92819 2.05913 8.16226 2.05913C8.14231 2.05913 8.12237 2.05913 8.10242 2.0597C7.20313 2.08078 6.6965 2.40049 6.35571 2.67974C6.02403 2.68828 5.73852 2.76807 5.48434 2.83931C5.25696 2.90199 5.06149 2.9567 4.87057 2.9567C4.79136 2.9567 4.65003 2.94986 4.63749 2.94929C4.41751 2.94246 3.31021 2.67119 2.42916 2.33723C2.33912 2.40106 2.2525 2.4666 2.16872 2.53385C3.0891 2.91054 4.20893 3.2029 4.56226 3.22512C4.66028 3.23253 4.76514 3.24336 4.87 3.24336C5.10366 3.24336 5.33674 3.17782 5.56299 3.11513C5.69634 3.07695 5.84338 3.03649 5.99782 3.00628C5.95678 3.04732 5.91575 3.08835 5.87415 3.12995L5.2353 3.82066C5.18572 3.87138 5.07573 4.00701 5.14811 4.17399C5.1766 4.24123 5.23416 4.30563 5.31623 4.36034C5.46839 4.46292 5.7408 4.53188 5.99383 4.53188C6.08957 4.53245 6.18132 4.52276 6.26452 4.50338C6.53237 4.44412 6.81276 4.22015 7.11024 3.98364C7.34731 3.79501 7.68412 3.55623 7.94171 3.48556C8.01409 3.46618 8.10299 3.45422 8.17423 3.45422C8.19531 3.45479 8.21526 3.45479 8.23349 3.45707C8.40389 3.47929 8.56916 3.53685 8.86322 3.75797C9.38752 4.15176 11.7075 6.18171 11.7303 6.20166C11.732 6.2028 11.8796 6.32988 11.8694 6.54302C11.8637 6.66099 11.7982 6.76585 11.6842 6.83879C11.585 6.90148 11.4824 6.93339 11.3799 6.93339C11.2243 6.93339 11.1177 6.86045 11.1109 6.85532C11.1018 6.84848 10.3073 6.11959 10.0144 5.87511C9.96824 5.83636 9.92322 5.80159 9.87763 5.80159C9.85255 5.80159 9.8309 5.81185 9.81608 5.83009C9.76992 5.88708 9.82178 5.96572 9.88276 6.01758L10.8117 6.94992C10.8128 6.95106 10.9274 7.05877 10.9393 7.20238C10.9467 7.35682 10.8727 7.48619 10.7188 7.58706C10.6094 7.65943 10.4988 7.69591 10.39 7.69591C10.2469 7.69591 10.1478 7.63094 10.125 7.61498L9.99217 7.48448C9.74826 7.24455 9.49694 6.99665 9.31344 6.84335C9.26841 6.80574 9.22054 6.77155 9.17495 6.77155C9.15216 6.77155 9.13164 6.78066 9.11625 6.79662C9.09517 6.81999 9.08035 6.86159 9.13278 6.93111C9.15444 6.96018 9.17951 6.98354 9.17951 6.98354L9.85768 7.74435C9.86338 7.75176 9.99673 7.91076 9.8725 8.06918L9.84856 8.09996C9.82805 8.12218 9.80639 8.14213 9.78587 8.16037C9.67019 8.25554 9.51575 8.26523 9.45477 8.26523C9.42171 8.26523 9.3898 8.26238 9.36302 8.25725C9.29577 8.24585 9.25075 8.22704 9.22966 8.2014L9.22168 8.19228C9.18407 8.15467 8.84271 7.80533 8.56004 7.56996C8.523 7.53919 8.47627 7.4993 8.4284 7.4993C8.40446 7.4993 8.38338 7.50898 8.36742 7.52665C8.311 7.5882 8.39477 7.67995 8.43068 7.713L9.00911 8.35014C9.00854 8.35584 9.00057 8.36952 8.98632 8.38946C8.9658 8.41853 8.89571 8.48862 8.68656 8.51484C8.66148 8.51769 8.63527 8.51883 8.60962 8.51883C8.39306 8.51883 8.16283 8.41397 8.04372 8.35071C8.09843 8.23673 8.12635 8.11136 8.12635 7.98484C8.12635 7.50898 7.73997 7.12203 7.26411 7.12203C7.25385 7.12203 7.2436 7.12203 7.23277 7.1226C7.24929 6.90547 7.21852 6.49401 6.79623 6.31335C6.67484 6.26035 6.55346 6.23414 6.43549 6.23414C6.34374 6.23414 6.25484 6.24953 6.17106 6.28201C6.08444 6.11161 5.93912 5.98795 5.74934 5.92355C5.64448 5.88708 5.54076 5.86884 5.43989 5.86884C5.2638 5.86884 5.10252 5.92013 4.95834 6.02271C4.81985 5.85117 4.6107 5.74916 4.39073 5.74916C4.19867 5.74916 4.01346 5.8261 3.87611 5.9623C3.6966 5.82439 2.98253 5.37133 1.07283 4.93764C0.980504 4.91712 0.768504 4.85615 0.638 4.81796C0.616344 4.92111 0.600387 5.0254 0.588989 5.13083C0.588989 5.13083 0.941181 5.21518 1.01071 5.23113C2.96144 5.66482 3.60656 6.11503 3.71541 6.19995C3.67836 6.28885 3.65956 6.38459 3.65899 6.4809C3.65899 6.88438 3.98667 7.21207 4.39016 7.21264C4.43518 7.21264 4.47963 7.20865 4.52408 7.20067C4.58506 7.49702 4.77882 7.72212 5.07573 7.83724C5.16179 7.87086 5.25012 7.88796 5.33617 7.88796C5.39202 7.88796 5.4473 7.88112 5.50258 7.86744C5.55729 8.00593 5.68096 8.17974 5.95621 8.29144C6.05309 8.33019 6.14941 8.35014 6.24344 8.35014C6.32037 8.35014 6.3956 8.33703 6.46684 8.31082C6.59905 8.63281 6.91306 8.84594 7.26354 8.84594C7.49549 8.84651 7.71831 8.75191 7.8813 8.58437C8.02035 8.6613 8.31442 8.80092 8.61076 8.80149C8.64951 8.80149 8.68542 8.79978 8.72189 8.79522C9.01652 8.75761 9.1533 8.64249 9.21655 8.55302C9.22795 8.53706 9.23821 8.51997 9.24676 8.50344C9.31685 8.52339 9.39265 8.53934 9.48098 8.53934C9.64169 8.53934 9.79613 8.4852 9.95285 8.37123C10.1056 8.2601 10.215 8.10167 10.2304 7.9666C10.231 7.96489 10.2315 7.96262 10.2315 7.96034C10.2834 7.97116 10.337 7.97629 10.3888 7.97629C10.5552 7.97629 10.7182 7.925 10.8738 7.82299C11.1741 7.62581 11.2266 7.36879 11.222 7.2001C11.2744 7.21036 11.328 7.21663 11.3816 7.21663C11.5371 7.21663 11.6899 7.1699 11.8352 7.07701C12.0221 6.9579 12.1338 6.77553 12.1509 6.56354C12.1629 6.41935 12.127 6.27403 12.0506 6.14866C12.5544 5.93153 13.705 5.51209 15.0608 5.20663C15.0522 5.1012 15.0374 4.99748 15.018 4.89433C13.3785 5.25849 12.1549 5.78735 11.8483 5.92469Z" fill="white"/>
<path d="M40.3476 4.25653C40.2154 4.43149 40.0273 4.51925 39.78 4.51925C39.5338 4.51925 39.344 4.43149 39.2112 4.25653C39.0779 4.08157 39.0117 3.83253 39.0117 3.5094C39.0117 3.18685 39.0779 2.93837 39.2112 2.76456C39.344 2.59017 39.5338 2.50298 39.78 2.50298C40.0273 2.50298 40.2154 2.59017 40.3476 2.76456C40.4786 2.93837 40.5453 3.18685 40.5453 3.5094C40.5453 3.83253 40.4786 4.08157 40.3476 4.25653ZM41.0212 2.30181C40.7488 1.96158 40.3362 1.79119 39.7828 1.79119C39.2294 1.79119 38.8163 1.96158 38.5444 2.30181C38.272 2.6426 38.1364 3.04494 38.1364 3.5094C38.1364 3.98241 38.272 4.38646 38.5444 4.72213C38.8163 5.05722 39.2294 5.22534 39.7828 5.22534C40.3362 5.22534 40.7488 5.05722 41.0212 4.72213C41.293 4.38646 41.4287 3.98241 41.4287 3.5094C41.4287 3.04494 41.293 2.6426 41.0212 2.30181" fill="white"/>
<path d="M33.6434 3.85878C33.6377 4.14145 33.5567 4.33635 33.4012 4.44292C33.2462 4.55006 33.0758 4.60363 32.8917 4.60363C32.7749 4.60363 32.6763 4.57058 32.5948 4.50675C32.5133 4.44178 32.4728 4.33806 32.4728 4.19331C32.4728 4.03203 32.5395 3.91235 32.6723 3.83485C32.7515 3.78983 32.8803 3.75107 33.0609 3.7203L33.2536 3.68383C33.3487 3.66559 33.4245 3.64621 33.4798 3.6257C33.5357 3.60575 33.5892 3.57897 33.6434 3.5442V3.85878ZM34.0719 2.01747C33.7967 1.87728 33.4809 1.80718 33.1259 1.80718C32.5794 1.80718 32.1941 1.94908 31.9696 2.23346C31.8283 2.41582 31.7496 2.64834 31.7314 2.931H32.5469C32.5668 2.80563 32.6073 2.70704 32.6671 2.63466C32.7515 2.5355 32.8945 2.48592 33.0968 2.48592C33.2769 2.48592 33.4143 2.51099 33.5077 2.56228C33.6001 2.61186 33.6468 2.70362 33.6468 2.83583C33.6468 2.94468 33.5858 3.02389 33.465 3.07575C33.3966 3.10596 33.2843 3.13046 33.127 3.15041L32.8375 3.18517C32.5093 3.22735 32.2597 3.29687 32.091 3.39375C31.7821 3.57156 31.6282 3.85878 31.6282 4.256C31.6282 4.56203 31.7234 4.79853 31.916 4.96608C32.1075 5.13306 32.3503 5.20315 32.6449 5.21683C34.4891 5.29947 34.4686 4.24517 34.4857 4.02576V2.8119C34.4857 2.42266 34.3472 2.15766 34.0719 2.01747" fill="white"/>
<path d="M29.8661 2.52976C30.077 2.52976 30.232 2.59473 30.3317 2.72523C30.4001 2.82098 30.4434 2.92983 30.46 3.05007H31.3701C31.3199 2.59074 31.1598 2.27103 30.8879 2.08981C30.6155 1.90858 30.2673 1.8174 29.8416 1.8174C29.3401 1.8174 28.9475 1.97184 28.6625 2.27901C28.3776 2.58675 28.2351 3.01645 28.2351 3.56867C28.2351 4.05821 28.3639 4.45713 28.6215 4.76487C28.8797 5.07204 29.282 5.22534 29.8285 5.22534C30.3762 5.22534 30.7888 5.04127 31.0669 4.67312C31.2418 4.44402 31.3393 4.20239 31.3598 3.94537H30.4531C30.4349 4.1152 30.3819 4.25311 30.2941 4.35968C30.2069 4.46511 30.0593 4.51925 29.8507 4.51925C29.5573 4.51925 29.3567 4.38532 29.2512 4.11691C29.1925 3.97386 29.1635 3.78409 29.1635 3.54816C29.1635 3.30082 29.1925 3.1025 29.2512 2.95205C29.3612 2.67109 29.5669 2.52976 29.8661 2.52976Z" fill="white"/>
<path d="M27.9913 1.81743C26.1226 1.81743 26.2326 3.47239 26.2326 3.47239V5.15356H27.0806V3.57668C27.0806 3.31852 27.1142 3.12704 27.178 3.00223C27.2949 2.78168 27.5222 2.67112 27.8613 2.67112C27.8864 2.67112 27.9206 2.67283 27.9616 2.67511C28.0032 2.67682 28.0505 2.68081 28.1041 2.68651V1.82427C28.0665 1.82142 28.042 1.82028 28.0312 1.81914C28.0209 1.81857 28.0072 1.81743 27.9913 1.81743Z" fill="white"/>
<path d="M23.7362 2.6956C23.8553 2.57307 24.0229 2.51209 24.2395 2.51209C24.4378 2.51209 24.6042 2.56908 24.7392 2.68534C24.8726 2.8016 24.9478 2.97085 24.9626 3.19425H23.5117C23.5419 2.98453 23.6177 2.81869 23.7362 2.6956ZM24.876 4.27476C24.8401 4.32548 24.8025 4.36936 24.7603 4.40299C24.6401 4.50158 24.4777 4.53178 24.2862 4.53178C24.1044 4.53178 23.9625 4.50443 23.8348 4.4235C23.6234 4.29357 23.5037 4.07359 23.4906 3.75046H25.838C25.8408 3.47179 25.8323 3.25865 25.8095 3.11105C25.7707 2.85859 25.6847 2.63633 25.5531 2.44485C25.4066 2.22772 25.2202 2.06872 24.9963 1.96785C24.7712 1.86755 24.5193 1.8174 24.2395 1.8174C23.767 1.8174 23.3829 1.96614 23.0866 2.26362C22.7914 2.56167 22.6426 2.98966 22.6426 3.54758C22.6426 4.14312 22.8068 4.57338 23.1344 4.83724C23.4621 5.10167 23.8411 5.23389 24.2697 5.23389C24.7888 5.23389 25.1929 5.07717 25.4812 4.76373C25.6374 4.59903 25.7343 4.43604 25.7759 4.27476H24.876Z" fill="white"/>
<path d="M22.3019 5.15283H21.5274V3.2021C21.5274 3.02429 21.4681 2.60029 20.9575 2.60029C20.6167 2.60029 20.3699 2.84592 20.3699 3.2021V5.15283H19.5949V3.2021C19.5949 3.02429 19.5419 2.60029 19.0313 2.60029C18.6842 2.60029 18.4431 2.84592 18.4431 3.2021V5.15283H17.6681V3.2209C17.6681 2.41508 18.2032 1.80644 19.0313 1.80644C19.4422 1.80644 19.7767 1.97911 19.9944 2.25551C20.2235 1.97911 20.5637 1.80644 20.9575 1.80644C21.8032 1.80644 22.3019 2.39 22.3019 3.2209V5.15283Z" fill="white"/>
<path d="M36.8669 4.26337C36.7432 4.44118 36.5608 4.52951 36.3232 4.52951C36.0844 4.52951 35.9066 4.44004 35.7892 4.26223C35.6724 4.08385 35.6142 3.82398 35.6142 3.5265C35.6142 3.25011 35.6712 3.0193 35.7863 2.83295C35.902 2.64716 36.0821 2.5537 36.3289 2.5537C36.4907 2.5537 36.6321 2.60499 36.7546 2.70757C36.9529 2.87626 37.0532 3.18115 37.0532 3.57494C37.0532 3.85647 36.9905 4.08613 36.8669 4.26337ZM37.8835 0.799009C37.8835 0.799009 37.0298 0.707827 37.0298 1.39397L37.0287 2.30295C36.9341 2.15022 36.811 2.03168 36.66 1.94677C36.5084 1.86071 36.3351 1.8174 36.1397 1.8174C35.7151 1.8174 35.3783 1.97526 35.1247 2.28984C34.8711 2.60613 34.7446 3.06033 34.7446 3.61028C34.7446 4.0867 34.8734 4.47822 35.1304 4.78254C35.388 5.08629 35.8918 5.22021 36.3397 5.22021C37.9012 5.22021 37.883 3.88097 37.883 3.88097L37.8835 0.799009Z" fill="white"/>
<path d="M19.9367 8.2411C19.9367 7.92082 19.8746 7.67577 19.7492 7.50309C19.6244 7.33098 19.4461 7.24436 19.213 7.24436C18.989 7.24436 18.8141 7.33098 18.6892 7.50309C18.573 7.65924 18.5154 7.90543 18.5154 8.2411C18.5154 8.55397 18.577 8.78648 18.7024 8.94206C18.8266 9.11531 19.0055 9.20136 19.2381 9.20136C19.454 9.20136 19.6244 9.11531 19.7492 8.94206C19.8746 8.77053 19.9367 8.53744 19.9367 8.2411ZM18.5154 10.5355C18.5154 10.6552 18.4698 10.7577 18.3792 10.8409C18.2983 10.9162 18.1889 10.9543 18.0778 10.9543H17.6674V8.00687C17.6674 7.43357 17.8606 7.0751 18.1786 6.83233C18.4083 6.65738 18.7611 6.49097 19.4597 6.52345C19.8199 6.53998 20.167 6.6967 20.3961 6.9748C20.6787 7.31959 20.7967 7.70312 20.7967 8.20463C20.7967 8.72152 20.6719 9.13811 20.4229 9.45952C20.1738 9.77125 19.8535 9.92683 19.4626 9.92683C19.2546 9.92683 19.0716 9.88979 18.9144 9.81628C18.7474 9.73421 18.6157 9.60656 18.5154 9.43445V10.5355Z" fill="white"/>
<path d="M25.0194 8.24153C25.0194 8.80629 25.183 9.11973 25.5095 9.18185C25.8361 9.24226 26.0766 9.16703 26.2321 8.95389C26.3057 8.86499 26.3587 8.72252 26.3911 8.53047C26.4236 8.33784 26.4259 8.1475 26.3974 7.95887C26.3689 7.76966 26.3017 7.60212 26.1951 7.45451C26.0891 7.30691 25.9335 7.23283 25.7301 7.23283C25.4525 7.23283 25.265 7.33598 25.167 7.54057C25.0679 7.74516 25.0194 7.97881 25.0194 8.24153ZM26.4156 9.65429V9.44628C26.2686 9.67651 26.0709 9.81899 25.8218 9.87655C25.5728 9.93353 25.3254 9.91359 25.081 9.81443C24.8359 9.71641 24.6262 9.53461 24.4501 9.26847C24.2746 9.00063 24.1874 8.65071 24.1874 8.21646C24.1874 7.70868 24.3036 7.29665 24.5356 6.98151C24.7687 6.66579 25.1425 6.52217 25.6566 6.50793C26.1638 6.49482 26.4578 6.60937 26.7462 6.82764C27.0619 7.06699 27.2483 7.434 27.2483 8.00731V9.74148C27.2494 10.2931 26.8647 11.3161 25.6566 11.2289C24.9083 11.1742 24.4923 10.867 24.2609 10.1717H25.1545C25.22 10.2857 25.3197 10.3741 25.4548 10.4356C25.5893 10.4977 25.7244 10.5131 25.8583 10.4852C25.9928 10.4561 26.1153 10.3758 26.2264 10.2453C26.3364 10.1136 26.3991 9.91701 26.4156 9.65429" fill="white"/>
<path d="M23.0332 8.58315C23.028 8.86639 22.9471 9.06072 22.7915 9.16729C22.6365 9.27443 22.4661 9.328 22.2821 9.328C22.1652 9.328 22.0661 9.29494 21.9846 9.23112C21.9036 9.16672 21.8626 9.06243 21.8626 8.91768C21.8626 8.7564 21.9293 8.63672 22.0626 8.55922C22.1419 8.5142 22.2707 8.47544 22.4507 8.44467L22.6434 8.4082C22.7391 8.38996 22.8149 8.37115 22.8696 8.35007C22.9255 8.33012 22.979 8.30334 23.0332 8.26857V8.58315ZM23.4617 6.74184C23.1865 6.60222 22.8702 6.53155 22.5151 6.53155C21.9692 6.53155 21.5839 6.67345 21.3594 6.9584C21.2192 7.14019 21.14 7.37271 21.1218 7.65537H21.9373C21.9572 7.53 21.9977 7.43141 22.0575 7.35903C22.1419 7.26044 22.2849 7.21029 22.4866 7.21029C22.6679 7.21029 22.8046 7.23536 22.8975 7.28665C22.9899 7.33623 23.0372 7.42799 23.0372 7.5602C23.0372 7.66905 22.9762 7.74883 22.8554 7.80069C22.787 7.83033 22.6747 7.85483 22.5168 7.87478L22.2279 7.90954C21.8997 7.95171 21.6495 8.02124 21.4814 8.11812C21.1719 8.29593 21.018 8.58315 21.018 8.98037C21.018 9.2864 21.1138 9.5229 21.3058 9.68988C21.4973 9.85743 21.7407 9.92752 22.0353 9.9412C23.8789 10.0238 23.8584 8.96897 23.8755 8.75013V7.53626C23.8755 7.14703 23.7376 6.8826 23.4617 6.74184Z" fill="white"/>
<path d="M29.7823 8.96275C29.6506 9.13827 29.462 9.22604 29.2152 9.22604C28.969 9.22604 28.7793 9.13827 28.6465 8.96275C28.5126 8.78779 28.4465 8.53932 28.4465 8.21619C28.4465 7.8942 28.5126 7.64516 28.6465 7.47191C28.7793 7.29696 28.969 7.21033 29.2152 7.21033C29.462 7.21033 29.6506 7.29696 29.7823 7.47191C29.9139 7.64516 29.9806 7.8942 29.9806 8.21619C29.9806 8.53932 29.9139 8.78779 29.7823 8.96275ZM30.4565 7.00916C30.184 6.66837 29.7714 6.49797 29.2175 6.49797C28.6647 6.49797 28.2515 6.66837 27.9797 7.00916C27.7073 7.34996 27.5717 7.7523 27.5717 8.21619C27.5717 8.6892 27.7073 9.09325 27.9797 9.42892C28.2515 9.76401 28.6647 9.93213 29.2175 9.93213C29.7714 9.93213 30.184 9.76401 30.4565 9.42892C30.7277 9.09325 30.8634 8.6892 30.8634 8.21619C30.8634 7.7523 30.7277 7.34996 30.4565 7.00916" fill="white"/>
</svg>
