<svg width="40" height="40" viewBox="0 0 40 40" fill="none" xmlns="http://www.w3.org/2000/svg">
<path d="M28.0432 25.3177C27.5857 27.9062 25.4369 29.552 22.3834 29.9166V31.6666C22.3834 32.5869 21.6493 33.3333 20.7404 33.3333C19.8316 33.3333 19.0934 32.5885 19.0934 31.6666V29.8458C19.0706 29.8424 19.0504 29.8442 19.0275 29.8407C17.6812 29.6446 16.2675 29.1532 15.0209 28.7193L14.4539 28.5232C13.5945 28.2291 13.1318 27.2812 13.4228 26.4114C13.7137 25.5416 14.6504 25.0713 15.5078 25.3656L16.0892 25.5666C17.1991 25.9523 18.4554 26.39 19.5031 26.5421C21.9238 26.9042 24.4926 26.4981 24.8031 24.7666C25.0698 23.2796 24.2294 22.689 20.3035 21.6051L19.5303 21.3906C17.2731 20.75 12.5777 19.4218 13.4372 14.6354C13.8921 12.0885 16.0316 10.4416 19.0934 10.0786V8.33329C19.0934 7.41298 19.83 6.66663 20.7394 6.66663C21.6488 6.66663 22.3834 7.41298 22.3834 8.33329V10.1536C22.4061 10.1569 22.4265 10.1559 22.4492 10.1594C23.3185 10.2912 24.3112 10.5484 25.5706 10.9693C26.4347 11.2574 26.9041 12.199 26.6198 13.074C26.3355 13.9474 25.402 14.4209 24.5425 14.1354C23.4773 13.7807 22.6343 13.5584 21.964 13.4573C19.556 13.0937 16.9842 13.5 16.6727 15.2343C16.446 16.5 16.9168 17.1875 20.4197 18.177L21.1697 18.3862C24.2494 19.2395 28.9068 20.526 28.0432 25.3177Z" fill="white"/>
</svg>
