<svg width="33" height="12" viewBox="0 0 33 12" fill="none" xmlns="http://www.w3.org/2000/svg">
<path d="M6.81685 9.46148H8.34008V5.0186H6.81685V9.46148ZM8.86725 1.99531H7.84072V3.02184H8.86725V1.99531ZM3.10976 2.49467H1.63752V3.78313H3.00479C3.87237 3.78313 4.37173 4.20367 4.37173 4.99244C4.37173 5.78121 3.87237 6.22792 3.00479 6.22792H1.63752V3.81061H0.114288V9.46148H1.63752V7.51604H3.0836C4.84492 7.51604 5.87046 6.56965 5.87046 4.93979C5.87046 3.4149 4.87141 2.49467 3.10976 2.49467ZM9.89279 0.971436H6.81685V4.04572H9.89279V0.971436ZM9.3931 3.5212H7.34269V1.46947H9.3931V3.5212ZM18.3318 2.49467H16.9384V3.78313H18.2527C19.1203 3.78313 19.62 4.20367 19.62 4.99244C19.62 5.78121 19.1203 6.22792 18.2527 6.22792H16.9384V3.81061H15.4152V9.46148H16.9384V7.51604H18.3318C20.0932 7.51604 21.1184 6.56965 21.1184 4.93979C21.1184 3.4149 20.0932 2.49467 18.3318 2.49467ZM31.1349 4.12486L29.8203 7.43624L28.5057 4.12486H26.9285L29.0316 9.46148L28.2166 11.4857H29.8203L32.7122 4.12486H31.1349ZM24.2996 4.09837C23.3794 4.09837 22.6694 4.30864 21.8806 4.70303L22.3542 5.75472C22.9062 5.43914 23.4582 5.28152 23.9575 5.28152C24.6937 5.28152 25.0619 5.5971 25.0619 6.1756V6.2809H23.5886C22.274 6.2809 21.5644 6.88556 21.5644 7.8846C21.5644 8.85715 22.2479 9.54029 23.4045 9.54029C24.1406 9.54029 24.6665 9.27769 25.087 8.83066V9.40882H26.5858V5.93883C26.5358 4.80833 25.7192 4.09837 24.2996 4.09837ZM25.1937 7.67466C25.036 8.12136 24.589 8.48959 23.9579 8.48959C23.4323 8.48959 23.1168 8.22666 23.1168 7.80612C23.1168 7.38557 23.4059 7.20146 23.9844 7.20146H25.1937V7.67466ZM12.2323 8.30481C11.4962 8.30481 10.9706 7.72631 10.9706 6.85873C10.9706 6.01764 11.4962 5.43915 12.2323 5.43915C12.7581 5.43915 13.1525 5.64942 13.4419 6.01764L14.4684 5.28152C13.9953 4.57156 13.1803 4.15102 12.1548 4.15102C10.5511 4.12486 9.44707 5.22887 9.44707 6.85873C9.44707 8.48859 10.5511 9.56678 12.1548 9.56678C13.2591 9.56678 14.0754 9.11974 14.5211 8.38362L13.4694 7.67399C13.2052 8.09454 12.7846 8.30481 12.2323 8.30481Z" fill="white"/>
</svg>
