<svg width="20" height="16" viewBox="0 0 20 16" fill="none" xmlns="http://www.w3.org/2000/svg">
<path d="M0 2C0 0.895431 0.895431 0 2 0H18C19.1046 0 20 0.895431 20 2V14C20 15.1046 19.1046 16 18 16H2C0.895431 16 0 15.1046 0 14V2Z" fill="white"/>
<path d="M9.42769 5.58931L8.42533 10.4238H7.21334L8.2157 5.58931H9.42769ZM14.5268 8.71054L15.1653 6.89568L15.5322 8.71054H14.5268ZM15.8799 10.4238H17L16.0226 5.58931H14.9876C14.7549 5.58931 14.5583 5.72864 14.4718 5.9434L12.6532 10.4238H13.9252L14.1783 9.70213H15.7334L15.8799 10.4238ZM12.7155 8.8463C12.7213 7.56851 11.0058 7.49865 11.0178 6.92982C11.0216 6.75516 11.1816 6.57058 11.5316 6.52334C11.7055 6.50032 12.1836 6.48245 12.7271 6.73968L12.9394 5.71396C12.6486 5.60559 12.2724 5.5 11.8059 5.5C10.6085 5.5 9.76463 6.15735 9.75809 7.09932C9.7504 7.79478 10.3597 8.18339 10.8197 8.41521C11.2912 8.65179 11.4493 8.80343 11.4482 9.0162C11.4447 9.34011 11.0708 9.48341 10.7228 9.48817C10.1135 9.49889 9.75924 9.31907 9.47769 9.18411L9.25768 10.2432C9.54077 10.3773 10.0635 10.4929 10.6058 10.5C11.879 10.5 12.7121 9.85019 12.7155 8.8463ZM7.69606 5.58931L5.73211 10.4238H4.45051L3.48431 6.56542C3.42507 6.32725 3.37392 6.24111 3.19583 6.14028C2.90505 5.97674 2.42387 5.82391 2 5.72864L2.02923 5.58931H4.09126C4.35435 5.58931 4.59052 5.76913 4.65052 6.08233L5.16093 8.88044L6.42177 5.58931H7.69606Z" fill="#1A1F71"/>
<rect x="1" y="1" width="18" height="2" fill="#1A1F71"/>
<rect x="1" y="13" width="18" height="2" fill="#F7B600"/>
<path d="M2 1H18V-1H2V1ZM19 2V14H21V2H19ZM18 15H2V17H18V15ZM1 14V2H-1V14H1ZM2 15C1.44772 15 1 14.5523 1 14H-1C-1 15.6569 0.343147 17 2 17V15ZM19 14C19 14.5523 18.5523 15 18 15V17C19.6569 17 21 15.6569 21 14H19ZM18 1C18.5523 1 19 1.44772 19 2H21C21 0.343145 19.6569 -1 18 -1V1ZM2 -1C0.343146 -1 -1 0.343146 -1 2H1C1 1.44772 1.44772 1 2 1V-1Z" fill="white"/>
</svg>
